<?xml version="1.0" encoding="UTF-8"?>
<svg xmlns="http://www.w3.org/2000/svg" xmlns:xlink="http://www.w3.org/1999/xlink" width="256px" height="326px" viewBox="0 0 256 326" version="1.1">
<g id="surface1">
<path style=" stroke:none;fill-rule:nonzero;fill:rgb(16.862746%,66.274512%,46.666667%);fill-opacity:1;" d="M 114.785156 0 L 168.0625 0 L 168.0625 244.167969 C 140.773438 249.328125 120.683594 251.359375 98.945312 251.359375 C 33.871094 251.292969 0 222.222656 0 166.394531 C 0 112.605469 35.929688 77.695312 91.609375 77.695312 C 100.246094 77.695312 106.828125 78.375 114.785156 80.414062 Z M 116.652344 124.414062 C 110.410156 122.378906 105.269531 121.699219 98.6875 121.699219 C 71.738281 121.699219 56.175781 138.132812 56.175781 166.9375 C 56.175781 194.980469 71.054688 210.464844 98.34375 210.464844 C 104.238281 210.464844 109.039062 210.132812 116.652344 209.113281 Z M 116.652344 124.414062 "/>
<path style=" stroke:none;fill-rule:nonzero;fill:rgb(16.862746%,66.274512%,46.666667%);fill-opacity:1;" d="M 255.1875 84.25 L 255.1875 206.503906 C 255.1875 248.605469 252.03125 268.851562 242.777344 286.304688 C 234.136719 303.085938 222.753906 313.667969 199.234375 325.355469 L 149.796875 302.0625 C 173.316406 291.132812 184.699219 281.476562 191.96875 266.738281 C 199.578125 251.667969 201.976562 234.210938 201.976562 188.300781 L 201.976562 84.253906 L 255.1875 84.253906 Z M 196.609375 0 L 249.886719 0 L 249.886719 54.128906 L 196.609375 54.128906 Z M 196.609375 0 "/>
</g>
</svg>
