<?xml version="1.0" encoding="UTF-8"?>
<svg xmlns="http://www.w3.org/2000/svg" xmlns:xlink="http://www.w3.org/1999/xlink" width="24px" height="24px" viewBox="0 0 24 24" version="1.1">
<g id="surface1">
<path style=" stroke:none;fill-rule:nonzero;fill:#CCCCCC;fill-opacity:1;" d="M 12 0.238281 C 2.945312 0.238281 -2.710938 10.039062 1.816406 17.878906 C 6.339844 25.71875 17.65625 25.71875 22.183594 17.878906 C 23.214844 16.09375 23.761719 14.066406 23.761719 12 C 23.753906 5.507812 18.492188 0.246094 12 0.238281 Z M 12.691406 22.351562 L 12.691406 14.535156 L 15.6875 14.535156 C 16.222656 14.535156 16.554688 13.960938 16.289062 13.5 C 16.164062 13.285156 15.9375 13.152344 15.6875 13.152344 L 12.691406 13.152344 L 12.691406 10.15625 C 12.691406 9.007812 13.621094 8.078125 14.765625 8.078125 L 16.613281 8.078125 C 17.144531 8.078125 17.476562 7.503906 17.210938 7.042969 C 17.085938 6.828125 16.859375 6.695312 16.613281 6.695312 L 14.765625 6.695312 C 12.855469 6.695312 11.308594 8.246094 11.308594 10.15625 L 11.308594 13.152344 L 8.3125 13.152344 C 7.777344 13.152344 7.445312 13.730469 7.710938 14.191406 C 7.835938 14.40625 8.0625 14.535156 8.3125 14.535156 L 11.308594 14.535156 L 11.308594 22.351562 C 3.339844 21.820312 -1.066406 12.859375 3.378906 6.222656 C 7.824219 -0.410156 17.789062 0.253906 21.3125 7.421875 C 24.570312 14.050781 20.058594 21.859375 12.691406 22.351562 Z M 12.691406 22.351562 "/>
</g>
</svg>
