<?xml version="1.0" encoding="UTF-8"?>
<svg xmlns="http://www.w3.org/2000/svg" xmlns:xlink="http://www.w3.org/1999/xlink" width="256px" height="249px" viewBox="0 0 255 249" version="1.1">
<g id="surface1">
<path style=" stroke:none;fill-rule:nonzero;fill:rgb(20%,0%,0%);fill-opacity:1;" d="M 45.15625 0 L 209.84375 0 C 234.8125 0 255 20.21875 255 45.222656 L 255 203.777344 C 255 228.78125 234.8125 249 209.84375 249 L 45.15625 249 C 20.1875 249 0 228.78125 0 203.777344 L 0 45.222656 C 0 20.21875 20.1875 0 45.15625 0 Z M 45.15625 0 "/>
<path style=" stroke:none;fill-rule:nonzero;fill:rgb(100%,60.392159%,0%);fill-opacity:1;" d="M 123.25 148.972656 L 83.726562 148.972656 L 75.648438 173.980469 C 75.4375 174.9375 74.585938 175.578125 73.632812 175.46875 L 53.65625 175.46875 C 52.488281 175.46875 52.167969 174.832031 52.488281 173.554688 L 86.699219 74.914062 C 87.019531 73.847656 87.335938 72.679688 87.761719 71.402344 C 88.1875 69.167969 88.398438 66.824219 88.398438 64.484375 C 88.292969 63.953125 88.71875 63.421875 89.25 63.3125 L 116.769531 63.3125 C 117.617188 63.3125 118.042969 63.632812 118.148438 64.164062 L 156.929688 173.769531 C 157.25 174.9375 156.929688 175.46875 155.867188 175.46875 L 133.664062 175.46875 C 132.917969 175.578125 132.175781 175.042969 131.960938 174.300781 Z M 89.886719 127.375 L 116.875 127.375 C 116.238281 125.136719 115.386719 122.476562 114.429688 119.710938 C 113.476562 116.839844 112.519531 113.753906 111.5625 110.558594 C 110.5 107.261719 109.542969 104.070312 108.480469 100.769531 C 107.417969 97.472656 106.460938 94.386719 105.613281 91.300781 C 104.761719 88.320312 104.019531 85.554688 103.273438 83 L 103.0625 83 C 102.105469 87.574219 100.9375 92.152344 99.449219 96.726562 C 97.855469 101.835938 96.261719 107.15625 94.5625 112.476562 C 93.074219 117.902344 91.480469 122.902344 89.886719 127.375 Z M 180.625 81.9375 C 177.117188 82.042969 173.71875 80.660156 171.167969 78.210938 C 168.726562 75.550781 167.449219 72.039062 167.554688 68.421875 C 167.449219 64.804688 168.832031 61.398438 171.382812 58.953125 C 173.929688 56.503906 177.332031 55.226562 180.835938 55.226562 C 184.980469 55.226562 188.167969 56.503906 190.507812 58.953125 C 192.84375 61.503906 194.117188 64.910156 194.011719 68.421875 C 194.117188 72.039062 192.84375 75.550781 190.292969 78.210938 C 187.851562 80.765625 184.238281 82.148438 180.625 81.9375 Z M 168.726562 174.300781 L 168.726562 92.363281 C 168.726562 91.300781 169.148438 90.875 170.105469 90.875 L 191.144531 90.875 C 192.101562 90.875 192.523438 91.40625 192.523438 92.363281 L 192.523438 174.300781 C 192.523438 175.46875 192.101562 176.003906 191.144531 176.003906 L 170.320312 176.003906 C 169.257812 176.003906 168.726562 175.363281 168.726562 174.300781 Z M 168.726562 174.300781 "/>
</g>
</svg>
