<?xml version="1.0" encoding="UTF-8"?>
<svg xmlns="http://www.w3.org/2000/svg" xmlns:xlink="http://www.w3.org/1999/xlink" width="256px" height="312px" viewBox="0 0 256 311" version="1.1">
<defs>
<linearGradient id="linear0" gradientUnits="userSpaceOnUse" x1="16.941999" y1="83.360001" x2="85.670998" y2="89.583" gradientTransform="matrix(3.248772,0,0,3.239493,0,0.00434853)">
<stop offset="0" style="stop-color:rgb(95.294118%,16.862745%,26.666667%);stop-opacity:1;"/>
<stop offset="0.6" style="stop-color:rgb(64.313725%,2.745098%,3.921569%);stop-opacity:1;"/>
</linearGradient>
<linearGradient id="linear1" gradientUnits="userSpaceOnUse" x1="63.514999" y1="87.297997" x2="33.002998" y2="84.535004" gradientTransform="matrix(3.248772,0,0,3.239493,0,0.00434853)">
<stop offset="0" style="stop-color:rgb(0%,0%,0%);stop-opacity:0.4;"/>
<stop offset="1" style="stop-color:rgb(0%,0%,0%);stop-opacity:0;"/>
</linearGradient>
<linearGradient id="linear2" gradientUnits="userSpaceOnUse" x1="44.737999" y1="-3.312" x2="-5.901" y2="71.527" gradientTransform="matrix(3.248772,0,0,3.239493,0,0.00434853)">
<stop offset="0" style="stop-color:rgb(50.196078%,2.352941%,0%);stop-opacity:1;"/>
<stop offset="0.6" style="stop-color:rgb(78.039216%,12.941176%,15.294118%);stop-opacity:1;"/>
<stop offset="0.728" style="stop-color:rgb(75.686275%,22.352941%,34.901961%);stop-opacity:1;"/>
<stop offset="0.847" style="stop-color:rgb(73.72549%,29.411765%,50.588235%);stop-opacity:1;"/>
<stop offset="0.942" style="stop-color:rgb(72.54902%,34.117647%,60%);stop-opacity:1;"/>
<stop offset="1" style="stop-color:rgb(72.156863%,35.686275%,63.529412%);stop-opacity:1;"/>
</linearGradient>
<linearGradient id="linear3" gradientUnits="userSpaceOnUse" x1="45.823002" y1="-4.81" x2="35.098999" y2="11.039" gradientTransform="matrix(3.248772,0,0,3.239493,0,0.00434853)">
<stop offset="0" style="stop-color:rgb(0%,0%,0%);stop-opacity:0.4;"/>
<stop offset="1" style="stop-color:rgb(0%,0%,0%);stop-opacity:0;"/>
</linearGradient>
<linearGradient id="linear4" gradientUnits="userSpaceOnUse" x1="61.486" y1="-4.887" x2="61.486" y2="88.780998" gradientTransform="matrix(3.248772,0,0,3.239493,0,0.00434853)">
<stop offset="0" style="stop-color:rgb(100%,72.54902%,0%);stop-opacity:1;"/>
<stop offset="0.166" style="stop-color:rgb(93.72549%,51.764706%,0%);stop-opacity:1;"/>
<stop offset="0.313" style="stop-color:rgb(88.627451%,36.078431%,0.392157%);stop-opacity:1;"/>
<stop offset="0.429" style="stop-color:rgb(85.882353%,26.666667%,0.392157%);stop-opacity:1;"/>
<stop offset="0.5" style="stop-color:rgb(84.705882%,23.137255%,0.392157%);stop-opacity:1;"/>
</linearGradient>
</defs>
<g id="surface1">
<path style=" stroke:none;fill-rule:nonzero;fill:url(#linear0);" d="M 62.191406 244.773438 C 53.339844 244.773438 46.125 251.644531 46.125 260.171875 C 46.125 265.964844 49.476562 270.933594 54.460938 273.582031 L 116.570312 306.773438 C 121.496094 309.542969 127.054688 310.996094 132.710938 310.996094 C 136.492188 310.996094 140.101562 310.335938 143.453125 309.175781 L 164.671875 303.296875 L 164.671875 244.691406 C 164.757812 244.773438 62.273438 244.773438 62.1875 244.773438 Z M 62.191406 244.773438 "/>
<path style=" stroke:none;fill-rule:nonzero;fill:url(#linear1);" d="M 62.191406 244.773438 C 53.339844 244.773438 46.125 251.644531 46.125 260.171875 C 46.125 265.964844 49.476562 270.933594 54.460938 273.582031 L 116.570312 306.773438 C 121.496094 309.542969 127.054688 310.996094 132.710938 310.996094 C 136.492188 310.996094 140.101562 310.335938 143.453125 309.175781 L 164.671875 303.296875 L 164.671875 244.691406 C 164.757812 244.773438 62.273438 244.773438 62.1875 244.773438 Z M 62.191406 244.773438 "/>
<path style=" stroke:none;fill-rule:nonzero;fill:url(#linear2);" d="M 142.089844 1.246094 C 139.15625 0.410156 136.117188 -0.0078125 133.066406 0.00390625 C 128 0.00390625 122.929688 1 118.375 3.316406 C 117.433594 3.730469 17.351562 57.945312 17.351562 57.945312 C 15.976562 58.609375 14.6875 59.4375 13.484375 60.265625 C 13.316406 60.347656 13.230469 60.429688 13.058594 60.515625 C 12.285156 61.089844 11.59375 61.671875 10.824219 62.25 C 10.480469 62.5 10.136719 62.835938 9.878906 63.082031 C 9.449219 63.492188 9.019531 63.90625 8.675781 64.320312 C 7.476562 65.5625 5.414062 68.207031 5.414062 68.207031 C 1.875 73.226562 -0.0195312 79.214844 0 85.347656 L 0 229.375 C 0 237.90625 7.214844 244.777344 16.066406 244.777344 C 18.296875 244.777344 20.359375 244.363281 22.25 243.535156 L 50.855469 228.054688 C 56.007812 225.574219 60.136719 221.347656 62.28125 216.132812 C 62.796875 215.058594 63.222656 213.738281 63.484375 212.40625 C 63.570312 212.078125 63.65625 211.664062 63.65625 211.332031 C 63.65625 211.171875 63.742188 210.921875 63.742188 210.757812 C 63.828125 210.171875 63.914062 209.511719 63.914062 208.933594 C 63.914062 208.4375 64 208.023438 64 207.527344 L 64 106.949219 C 64 100.242188 67.007812 94.203125 71.734375 89.980469 C 71.734375 89.980469 69.496094 91.96875 71.734375 89.980469 C 73.964844 87.996094 76.886719 86.253906 80.324219 85.097656 C 83.757812 83.855469 165.023438 55.546875 165.023438 55.546875 L 165.023438 7.785156 Z M 142.089844 1.246094 "/>
<path style=" stroke:none;fill-rule:nonzero;fill:url(#linear3);" d="M 142.089844 1.246094 C 139.15625 0.410156 136.117188 -0.0078125 133.066406 0.00390625 C 128 0.00390625 122.929688 1 118.375 3.316406 C 117.433594 3.730469 17.351562 57.945312 17.351562 57.945312 C 15.976562 58.609375 14.6875 59.4375 13.484375 60.265625 C 13.316406 60.347656 13.230469 60.429688 13.058594 60.515625 C 12.285156 61.089844 11.59375 61.671875 10.824219 62.25 C 10.480469 62.5 10.136719 62.835938 9.878906 63.082031 C 9.449219 63.492188 9.019531 63.90625 8.675781 64.320312 C 7.476562 65.5625 5.414062 68.207031 5.414062 68.207031 C 1.875 73.226562 -0.0195312 79.214844 0 85.347656 L 0 229.375 C 0 237.90625 7.214844 244.777344 16.066406 244.777344 C 18.296875 244.777344 20.359375 244.363281 22.25 243.535156 L 50.855469 228.054688 C 56.007812 225.574219 60.136719 221.347656 62.28125 216.132812 C 62.796875 215.058594 63.222656 213.738281 63.484375 212.40625 C 63.570312 212.078125 63.65625 211.664062 63.65625 211.332031 C 63.65625 211.171875 63.742188 210.921875 63.742188 210.757812 C 63.828125 210.171875 63.914062 209.511719 63.914062 208.933594 C 63.914062 208.4375 64 208.023438 64 207.527344 L 64 106.949219 C 64 100.242188 67.007812 94.203125 71.734375 89.980469 C 71.734375 89.980469 69.496094 91.96875 71.734375 89.980469 C 73.964844 87.996094 76.886719 86.253906 80.324219 85.097656 C 83.757812 83.855469 165.023438 55.546875 165.023438 55.546875 L 165.023438 7.785156 Z M 142.089844 1.246094 "/>
<path style=" stroke:none;fill-rule:nonzero;fill:url(#linear4);" d="M 233.582031 27.054688 L 143.464844 1.648438 C 156.523438 6.53125 164.679688 17.539062 164.679688 30.953125 C 164.679688 30.953125 164.597656 274.5625 164.679688 280.4375 C 164.769531 293.679688 156.007812 305.023438 143.464844 309.242188 C 146.214844 308.496094 233.582031 284.242188 233.582031 284.242188 C 246.550781 280.273438 255.914062 268.679688 255.914062 254.863281 L 255.914062 56.4375 C 256 42.699219 246.550781 31.027344 233.582031 27.054688 Z M 233.582031 27.054688 "/>
</g>
</svg>
